<svg id="Layer_1" data-name="Layer 1" xmlns="http://www.w3.org/2000/svg" viewBox="0 0 48.36 48.36"><defs><style>.cls-1{fill:#ffffff;}</style></defs><g id="Capa_1-2" data-name="Capa 1"><path class="cls-1" d="M48.26,22a1.42,1.42,0,0,0-2.76-.32,13.76,13.76,0,1,1-14.89-18,1.41,1.41,0,0,0,.2-2.76A24.18,24.18,0,0,0,5.56,39.61a24.19,24.19,0,0,0,34.05,3.18,24,24,0,0,0,8.64-16.36A24.5,24.5,0,0,0,48.26,22ZM22.19,45.43A21.34,21.34,0,0,1,24.38,2.84a16.24,16.24,0,0,0-3.83,2.93A16.59,16.59,0,0,0,41.6,31.17,17,17,0,0,0,45.19,28,21.37,21.37,0,0,1,22.19,45.43Z"/></g></svg>