<svg xmlns="http://www.w3.org/2000/svg" width="13.143" height="7.52" viewBox="0 0 13.143 7.52">
  <g id="Group_36327" data-name="Group 36327" transform="translate(2410.236 -1540.401)">
    <path id="Path_65928" data-name="Path 65928" d="M-2394.59,1542.606a.257.257,0,0,1-.25.2.289.289,0,0,1-.058-.006,10.7,10.7,0,0,0-2.406-.231.257.257,0,0,1-.266-.247.258.258,0,0,1,.248-.266,11.35,11.35,0,0,1,2.539.243A.257.257,0,0,1-2394.59,1542.606Z" transform="translate(-5.628 -0.734)" fill="#565a69"/>
    <path id="Path_65929" data-name="Path 65929" d="M-2391.215,1543.252a.257.257,0,0,1-.237.159.252.252,0,0,1-.1-.02l-.008,0a.257.257,0,0,1-.139-.335.257.257,0,0,1,.335-.139l.008,0A.256.256,0,0,1-2391.215,1543.252Z" transform="translate(-8.229 -1.108)" fill="#565a69"/>
    <path id="Path_65930" data-name="Path 65930" d="M-2399.132,1540.91a18.14,18.14,0,0,0-4.532-.509c-.724,0-1.431.033-2.1.1l-.513.051c-.2.025-.4.055-.588.085l-.014,0c-.118.018-.233.038-.346.058-.26.045-.47.093-.507.1l-.006,0c-.158.035-.312.073-.459.113q-.26.07-.489.148l-.514.2c-.682.312-1.037.686-1.037,1.105v3.594c0,.591.705,1.094,2.04,1.455a18.164,18.164,0,0,0,4.532.508,18.171,18.171,0,0,0,4.532-.508c1.333-.361,2.039-.864,2.039-1.455v-3.594C-2397.094,1541.773-2397.8,1541.27-2399.132,1540.91Zm1.525,5.048c0,.235-.434.628-1.66.959a17.632,17.632,0,0,1-4.4.491,17.636,17.636,0,0,1-4.4-.491c-1.225-.331-1.66-.724-1.66-.959v-.988a4.824,4.824,0,0,0,1.526.646,18.169,18.169,0,0,0,4.532.508,18.177,18.177,0,0,0,4.532-.508,4.822,4.822,0,0,0,1.525-.646Zm0-1.8c0,.236-.434.628-1.66.959a17.624,17.624,0,0,1-4.4.491,17.627,17.627,0,0,1-4.4-.491c-1.225-.331-1.66-.723-1.66-.959v-.987a4.833,4.833,0,0,0,1.526.645,18.138,18.138,0,0,0,4.532.509,18.146,18.146,0,0,0,4.532-.509,4.831,4.831,0,0,0,1.525-.645Zm-1.66-.838a17.63,17.63,0,0,1-4.4.491,17.634,17.634,0,0,1-4.4-.491c-1.225-.331-1.66-.724-1.66-.959,0-.176.243-.439.876-.7l.008,0a6.728,6.728,0,0,1,.776-.257c.1-.028.213-.055.324-.082l.514-.108c.3-.057.618-.106.949-.147l.513-.056c.665-.064,1.371-.1,2.1-.1a17.655,17.655,0,0,1,4.4.491c1.226.331,1.66.724,1.66.959S-2398.042,1542.992-2399.267,1543.323Z" fill="#565a69"/>
    <path id="Path_65931" data-name="Path 65931" d="M-2394.59,1542.606a.257.257,0,0,1-.25.2.289.289,0,0,1-.058-.006,10.7,10.7,0,0,0-2.406-.231.257.257,0,0,1-.266-.247.258.258,0,0,1,.248-.266,11.35,11.35,0,0,1,2.539.243A.257.257,0,0,1-2394.59,1542.606Z" transform="translate(-5.628 -0.734)" fill="#565a69"/>
    <path id="Path_65932" data-name="Path 65932" d="M-2391.215,1543.252a.257.257,0,0,1-.237.159.252.252,0,0,1-.1-.02l-.008,0a.257.257,0,0,1-.139-.335.257.257,0,0,1,.335-.139l.008,0A.256.256,0,0,1-2391.215,1543.252Z" transform="translate(-8.229 -1.108)" fill="#565a69"/>
    <path id="Path_65933" data-name="Path 65933" d="M-2394.59,1542.606a.257.257,0,0,1-.25.2.289.289,0,0,1-.058-.006,10.7,10.7,0,0,0-2.406-.231.257.257,0,0,1-.266-.247.258.258,0,0,1,.248-.266,11.35,11.35,0,0,1,2.539.243A.257.257,0,0,1-2394.59,1542.606Z" transform="translate(-5.628 -0.734)" fill="#565a69"/>
    <path id="Path_65934" data-name="Path 65934" d="M-2391.215,1543.252a.257.257,0,0,1-.237.159.252.252,0,0,1-.1-.02l-.008,0a.257.257,0,0,1-.139-.335.257.257,0,0,1,.335-.139l.008,0A.256.256,0,0,1-2391.215,1543.252Z" transform="translate(-8.229 -1.108)" fill="#565a69"/>
    <path id="Path_65935" data-name="Path 65935" d="M-2405.222,1540.927l-.507.1C-2405.692,1541.02-2405.482,1540.971-2405.222,1540.927Z" transform="translate(-2.002 -0.234)" fill="#565a69"/>
    <line id="Line_3" data-name="Line 3" x1="0.507" y2="0.102" transform="translate(-2407.732 1540.693)" fill="none"/>
  </g>
</svg>
